<?xml version="1.0" encoding="utf-8"?>
<!-- Uploaded to: SVG Repo, www.svgrepo.com, Generator: SVG Repo Mixer Tools -->
<!DOCTYPE svg PUBLIC "-//W3C//DTD SVG 1.1//EN" "http://www.w3.org/Graphics/SVG/1.1/DTD/svg11.dtd">
<svg fill="#000000" width="800px" height="800px" viewBox="0 0 1000 1000" version="1.1" xmlns="http://www.w3.org/2000/svg" xmlns:xlink="http://www.w3.org/1999/xlink"  enable-background="new 0 0 1000 1000" xml:space="preserve">

<g>
<g transform="translate(0.000000,511.000000) scale(0.100000,-0.100000)">
<path d="M2867,4864.4c-300.9-181.3-566.7-494.6-669.7-791.3c-22.7-68-22.7-68-84.5-37.1c-146.3,76.3-288.5,323.5-360.6,626.4l-47.4,199.9l-28.8-92.7c-16.5-53.6-28.8-173.1-26.8-288.5c2.1-218.4,57.7-414.2,210.2-746l82.4-179.3l-117.5-140.1c-105.1-123.6-292.6-290.5-459.5-410.1c-35-22.7-94.8-117.5-150.4-230.8l-92.7-191.6l49.5-18.5c26.8-10.3,131.9-43.3,230.8-74.2c101-30.9,206.1-76.2,234.9-101c76.3-65.9,142.2-103,274.1-150.4l117.5-45.3l-49.5,78.3c-28.8,41.2-65.9,111.3-84.5,152.5c-30.9,76.2-30.9,78.3,20.6,111.3c68,45.3,292.6,103,597.6,154.6c274.1,45.3,480.1,96.8,496.6,123.6c6.2,10.3,24.7,18.5,41.2,18.5c39.2,0,39.2-140.1-2.1-298.8c-90.7-352.4-290.6-612-577-754.2c-309.1-152.5-463.6-127.8-577,96.9c-59.8,117.5-61.8,119.5-68,57.7c-8.3-88.6,45.3-414.2,84.5-506.9c20.6-47.4,57.7-88.6,101-111.3c101-53.6,323.5-57.7,552.2-12.4l195.8,37.1l-92.7,41.2l-92.7,41.2l82.4,53.6c45.3,28.8,179.3,105.1,298.8,171c119.5,63.9,280.2,171,356.5,234.9c302.9,251.4,480.1,377.1,640.9,455.4c175.2,86.6,391.5,144.2,550.2,144.2c138.1,0,156.6,35,80.4,142.2l-61.8,84.5l49.5,20.6c395.6,150.4,1075.7,267.9,1543.4,267.9c136,0,226.7,12.4,352.4,51.5c921.1,278.2,1967.9,259.6,2895.2-49.5l239-80.4l-204,193.7c-434.8,416.2-822.2,692.4-1275.5,917c-451.3,220.5-970.6,370.9-1487.8,430.7c-276.1,30.9-931.4,24.7-1222-10.3c-381.2-47.4-803.6-138.1-1180.7-251.4c-24.7-6.2-37.1,10.3-47.4,76.3c-14.4,94.8-164.9,506.9-202,550.2c-30.9,39.2-45.3,18.5-98.9-148.4c-113.3-348.2-263.8-546.1-414.2-546.1c-26.8,0-103,18.5-173.1,43.3l-125.7,41.2l-123.6-43.3c-179.3-65.9-222.5-70.1-261.7-30.9c-53.6,51.5-63.9,131.9-39.2,253.5c33,158.7,94.8,276.1,212.3,403.9c55.6,61.8,101,117.5,101,123.6C3058.7,4953,2974.2,4928.2,2867,4864.4z M2805.2,3467.2c-72.1-57.7-74.2-63.9-41.2-88.6c35-26.8,35-30.9-14.4-84.5c-70.1-74.2-197.8-131.9-302.9-131.9c-162.8,0-187.5,35-96.8,144.2c65.9,76.2,181.3,138.1,348.2,187.5C2873.2,3545.6,2893.8,3541.4,2805.2,3467.2z"/>
<path d="M7571.5,2902.6c-838.7-98.9-1430.1-286.4-2031.8-649.1c-364.7-218.4-750.1-564.6-970.6-869.6c-348.2-482.2-622.3-818.1-667.6-818.1c-8.2,0-18.5,20.6-22.7,45.3c-12.4,80.4-51.5,59.8-136-70.1c-164.9-253.5-377.1-428.6-519.3-428.6c-49.5,0-101,18.5-146.3,51.5c-150.4,111.3-222.5,133.9-383.3,119.5c-179.3-14.4-212.2,4.1-212.2,123.6c0,173.1,171,401.8,397.7,529.6c65.9,37.1,117.5,74.2,117.5,84.5c0,37.1-138.1,16.5-333.8-49.5c-346.2-121.6-589.3-305-836.6-632.6c-191.6-255.5-498.7-465.7-836.6-577c-185.5-61.8-356.5-47.4-655.3,47.4c-121.6,39.2-224.6,65.9-230.8,59.8c-20.6-18.6,47.4-121.6,129.8-195.8c45.3-41.2,133.9-105.1,197.8-140.1c61.8-35,113.3-70,113.3-76.2c0-6.2-33-45.3-72.1-86.5l-72.1-74.2l212.2-148.3c117.5-82.4,226.7-173.1,243.2-202c14.4-28.8,82.4-103,148.4-164.8c115.4-107.1,173.1-140.1,152.5-84.5c-4.1,14.4-20.6,78.3-35,144.2c-35,169-22.7,179.3,224.6,179.3c111.3,0,307-14.4,436.9-30.9c265.8-35,500.7-45.3,570.8-22.7c43.3,14.4,45.3,10.3,33-43.3c-22.7-94.8-146.3-319.4-241.1-434.8c-113.3-138.1-298.8-276.1-447.2-335.9c-158.7-61.8-498.7-80.4-595.5-30.9c-86.6,45.3-142.2,140.1-158.7,276.1c-10.3,84.5-18.5,105.1-33,78.3c-33-57.7-78.3-340-78.3-486.3c0-140.1,0-142.2,84.5-214.3c107.1-90.7,226.7-131.9,463.6-158.7c101-10.3,201.9-24.7,224.6-30.9c28.8-6.2,16.5,12.4-37.1,61.8c-72.1,63.9-76.2,72.1-41.2,90.7c20.6,12.3,160.7,45.3,313.2,76.3c311.2,61.8,354.4,76.2,686.2,218.4c352.4,150.4,597.6,208.1,840.7,197.8c107.2-4.1,249.3-20.6,313.2-37.1c154.6-35,183.4-14.4,131.9,103c-20.6,43.3-63.9,119.5-94.8,166.9l-57.7,88.6l249.3,144.2c680,387.4,1234.3,906.7,1745.4,1632c193.7,278.2,319.4,412.1,515.2,550.2c395.6,280.2,1028.3,494.6,1559.9,525.5c185.5,10.3,210.2,16.5,228.7,55.6c45.3,98.9,290.6,406,447.2,560.5c261.7,255.5,577,453.3,925.2,577l164.9,57.7l-65.9,26.8c-113.3,47.4-457.5,129.8-715,173.1C8478.2,2896.5,7763.1,2925.3,7571.5,2902.6z M2461.1-227.5c0-4.1-37.1-28.8-82.4-51.5c-86.5-43.3-96.9-59.8-59.8-96.8c30.9-30.9-107.2-111.3-218.4-123.7c-101-12.3-298.8,45.4-298.8,84.5c0,59.8,160.7,152.5,307,177.2C2215.9-219.2,2461.1-213,2461.1-227.5z"/>
<path d="M9683.6,2389.5c-723.3-191.6-1298.2-653.2-1669.1-1339.4c-179.3-333.8-292.6-686.2-379.2-1174.6c-119.5-667.7-342.1-1141.6-688.2-1465.1c-146.3-136-385.3-296.7-441-296.7c-18.5,0-26.8,39.1-28.8,129.8c-2.1,195.8-24.7,313.2-57.7,313.2c-16.5,0-78.3-68-138-152.5c-59.8-82.4-148.4-191.6-197.8-243.2c-94.8-96.9-263.8-191.6-342.1-191.6c-53.6,0-127.8,33-127.8,59.7c0,8.3,41.2,88.6,92.7,177.2c185.5,327.6,298.8,671.8,298.8,910.8c0,123.6-20.6,101-101-107.2c-144.2-377.1-327.6-597.6-628.5-758.3c-199.9-105.1-239-113.3-288.5-63.9c-125.7,123.6,94.8,502.8,385.3,667.7c189.6,107.2,185.5,142.2-10.3,105.1c-191.6-37.1-447.1-148.4-645-280.2c-175.2-115.4-243.1-185.5-488.4-494.6c-220.5-278.2-647-560.5-1044.7-690.3c-115.4-39.2-150.4-63.9-278.2-199.9c-80.4-86.5-148.4-166.9-150.4-179.3c-4.1-12.4,94.8-90.6,216.4-175.2c154.5-107.1,237-177.2,276.1-239c47.4-80.4,282.3-288.5,300.8-269.9c4.1,4.1-8.2,57.7-24.7,117.4c-43.3,140.1-43.3,237,0,253.5c65.9,24.7,438.9,10.3,739.8-28.8c346.2-45.4,457.5-49.5,533.7-20.6c28.8,10.3,55.6,12.3,61.8,4.1c16.5-28.9-70.1-237-152.5-364.7c-103-156.6-296.7-352.4-426.6-428.6c-154.5-88.6-360.6-144.3-550.2-146.3c-278.2-2.1-379.2,80.4-414.2,333.8c-8.2,57.7-20.6,103-30.9,96.9c-35-22.7-92.7-430.7-84.5-614.1c4.1-144.3,201.9-270,482.2-305c92.7-10.3,212.3-28.8,265.8-37.1c55.6-10.3,98.9-10.3,98.9-2.1c0,8.3-33,41.2-74.2,72.1c-41.2,30.9-65.9,63.9-55.6,74.2c8.2,8.2,152.5,45.3,319.4,80.4c362.7,74.2,465.7,107.1,781,245.2c329.7,146.3,591.4,210.2,853.1,210.2c127.8,0,245.2-12.4,309.1-30.9c57.7-18.5,127.8-32.9,160.7-32.9c105.1,0,68,127.8-117.5,391.5c-51.5,72.1-90.7,133.9-88.6,138.1c2.1,2.1,96.8,22.7,210.2,45.3c958.2,199.9,1726.8,741.8,2219.3,1566.1c247.3,414.2,432.7,943.8,541.9,1549.6c28.9,154.6,70.1,346.2,94.8,422.4c105.1,346.2,350.3,682.1,585.2,803.7l113.3,59.8v778.9c0,426.6-6.2,776.9-14.4,776.9C9875.3,2439,9786.7,2416.3,9683.6,2389.5z M4845.3-2376.7c-65.9-68-70.1-80.4-41.2-98.9c30.9-18.5,30.9-24.7,0-72.1c-74.2-111.3-292.6-185.4-457.5-154.6l-74.2,14.4l45.3,80.4c61.8,109.2,175.2,183.4,377.1,251.4C4919.4-2281.9,4935.9-2284,4845.3-2376.7z"/>
</g>
</g>
</svg>