<?xml version="1.0" encoding="utf-8"?><!-- Uploaded to: SVG Repo, www.svgrepo.com, Generator: SVG Repo Mixer Tools -->
<svg version="1.1" id="Uploaded to svgrepo.com" xmlns="http://www.w3.org/2000/svg" xmlns:xlink="http://www.w3.org/1999/xlink" 
	 width="800px" height="800px" viewBox="0 0 32 32" xml:space="preserve">
<style type="text/css">
	.stone_een{fill:#111918;}
	.st0{fill:#0B1719;}
</style>
<path class="stone_een" d="M17,15v4h-2v-4c0-0.551,0.449-1,1-1S17,14.449,17,15z M6.913,10h18.174l1.034-1.034
	C26.684,8.403,27,7.64,27,6.844V3c0-0.552-0.448-1-1-1h-2c-0.552,0-1,0.448-1,1v1h-2V3c0-0.552-0.448-1-1-1h-2c-0.552,0-1,0.448-1,1
	v1h-2V3c0-0.552-0.448-1-1-1h-2c-0.552,0-1,0.448-1,1v1H9V3c0-0.552-0.448-1-1-1H6C5.448,2,5,2.448,5,3v3.844
	C5,7.64,5.316,8.403,5.879,8.966L6.913,10z M25.19,11l1.497,15.716C26.855,28.477,25.47,30,23.701,30H8.299
	c-1.769,0-3.154-1.523-2.987-3.284L6.81,11H25.19z M18,15c0-1.105-0.895-2-2-2c-1.105,0-2,0.895-2,2v4c0,0.552,0.448,1,1,1h2
	c0.552,0,1-0.448,1-1V15z"/>
</svg>