<?xml version="1.0" encoding="UTF-8" standalone="no"?>
<!DOCTYPE svg PUBLIC "-//W3C//DTD SVG 1.1//EN" "http://www.w3.org/Graphics/SVG/1.1/DTD/svg11.dtd">
<svg xmlns="http://www.w3.org/2000/svg" version="1.1" viewBox="0.00 0.00 138.00 142.00">
<path fill="#ebd88b" fill-opacity="0.996" d="
  M 32.23 74.14
  L 18.26 62.71
  Q 16.91 61.61 18.09 60.33
  Q 18.38 60.01 19.27 59.28
  Q 42.60 39.96 66.07 20.81
  Q 69.44 18.07 72.71 20.75
  Q 96.87 40.58 120.79 60.37
  A 1.40 1.39 -45.1 0 1 120.79 62.52
  L 106.54 74.25
  A 0.60 0.60 0.0 0 0 106.54 75.17
  L 120.57 86.63
  Q 122.10 87.89 120.57 89.14
  L 79.08 123.12
  A 1.27 1.27 0.0 0 1 77.01 122.15
  Q 76.86 106.31 76.92 89.75
  C 76.93 86.42 77.14 85.39 79.83 83.22
  Q 92.33 73.09 105.08 62.59
  Q 106.60 61.34 105.08 60.09
  L 71.91 32.83
  Q 69.47 30.83 67.04 32.83
  L 33.85 60.07
  A 1.73 1.73 0.0 0 0 33.85 62.75
  Q 46.73 73.24 58.40 82.85
  C 60.99 84.99 62.07 86.50 62.09 90.10
  Q 62.18 106.18 61.82 122.39
  Q 61.78 124.00 60.31 123.32
  Q 58.90 122.65 57.10 121.16
  Q 39.02 106.23 20.98 91.27
  Q 19.33 89.90 17.81 88.47
  A 1.09 1.09 0.0 0 1 17.87 86.84
  L 32.23 75.10
  Q 32.83 74.62 32.23 74.14
  Z
  M 50.63 102.91
  A 0.84 0.84 0.0 0 0 52.00 102.26
  L 51.96 90.57
  A 0.84 0.84 0.0 0 0 51.65 89.92
  L 41.17 81.40
  A 0.84 0.84 0.0 0 0 40.11 81.39
  L 32.93 87.14
  A 0.84 0.84 0.0 0 0 32.92 88.45
  L 50.63 102.91
  Z
  M 87.21 89.92
  A 1.06 1.06 0.0 0 0 86.82 90.74
  L 86.78 101.81
  A 1.06 1.06 0.0 0 0 88.51 102.64
  L 105.66 88.67
  A 1.06 1.06 0.0 0 0 105.65 87.02
  L 98.80 81.55
  A 1.06 1.06 0.0 0 0 97.47 81.56
  L 87.21 89.92
  Z"
/>
<path fill="#ebd88b" fill-opacity="0.996" d="
  M 68.27 58.41
  L 58.02 66.68
  A 2.27 2.26 -45.1 0 1 55.18 66.69
  L 50.32 62.77
  A 1.56 1.55 44.7 0 1 50.30 60.36
  L 67.10 46.50
  A 3.61 3.60 -44.9 0 1 71.69 46.51
  L 88.82 60.65
  A 0.97 0.97 0.0 0 1 88.92 62.05
  C 87.70 63.39 86.34 64.42 84.70 65.85
  C 81.77 68.42 79.96 66.18 77.24 63.98
  Q 73.97 61.34 70.76 58.48
  A 1.93 1.92 46.5 0 0 68.27 58.41
  Z"
/>
</svg>
